#Comment line ignore any data following # character 
#Hierarchical Translation and Rotation (.htr) file 
[Header]	
#Header keywords are followed by a single value 
FileType HTR		#Single word string
DataType HTRS		#Translation followed by rotation and scale data
FileVersion 1		#integer
NumSegments 84		#integer
NumFrames 2		#integer
DataFrameRate 30		#integer, data frame rate in this file
EulerRotationOrder ZYX
CalibrationUnits mm
RotationUnits Degrees
GlobalAxisofGravity Y
BoneLengthAxis Y
ScaleFactor 1.00
[SegmentNames&Hierarchy]
#CHILD	PARENT
MASTER GLOBAL
root MASTER
chest root
L_mid_tent01 root
R_mid_tent01 root
spine01 root
Bip01_Neck chest
L_humerus chest
R_humerus chest
weapon_bone chest
Bip01_Head Bip01_Neck
eye_left_bone Bip01_Head
eye_right_bone Bip01_Head
L_forearm L_humerus
L_front_hand L_forearm
L_weapon_bone L_forearm
L_front_hand01_01 L_front_hand
L_front_hand02_01 L_front_hand
L_front_hand03_01 L_front_hand
L_front_hand01_02 L_front_hand01_01
L_front_hand02_02 L_front_hand02_01
L_front_hand03_02 L_front_hand03_01
R_forearm R_humerus
R_front_hand R_forearm
R_weapon_bone R_forearm
R_front_hand01_01 R_front_hand
R_front_hand02_01 R_front_hand
R_front_hand03_01 R_front_hand
R_front_hand01_02 R_front_hand01_01
R_front_hand02_02 R_front_hand02_01
R_front_hand03_02 R_front_hand03_01
null_rope01_connect L_mid_tent01
Rope1_Seg01 null_rope01_connect
Rope1_Seg02 Rope1_Seg01
Rope1_Seg03 Rope1_Seg02
Rope1_Seg04 Rope1_Seg03
Rope1_Seg05 Rope1_Seg04
Rope1_Seg06 Rope1_Seg05
Rope1_Seg07 Rope1_Seg06
Rope1_Seg09 Rope1_Seg07
L_mid_hand01 Rope1_Seg09
L_mid_hand02 Rope1_Seg09
L_mid_hand03 Rope1_Seg09
null_rope02_connect R_mid_tent01
Rope2_Seg01 null_rope02_connect
Rope2_Seg02 Rope2_Seg01
Rope2_Seg03 Rope2_Seg02
Rope2_Seg04 Rope2_Seg03
Rope2_Seg05 Rope2_Seg04
Rope2_Seg06 Rope2_Seg05
Rope2_Seg07 Rope2_Seg06
Rope2_Seg09 Rope2_Seg07
R_mid_hand01 Rope2_Seg09
R_mid_hand02 Rope2_Seg09
R_mid_hand03 Rope2_Seg09
spine02 spine01
spine03 spine02
pelvis spine03
null_rope03_connect pelvis
null_rope04_connect pelvis
Rope3_Seg01 null_rope03_connect
Rope3_Seg02 Rope3_Seg01
Rope3_Seg03 Rope3_Seg02
Rope3_Seg04 Rope3_Seg03
Rope3_Seg05 Rope3_Seg04
Rope3_Seg06 Rope3_Seg05
Rope3_Seg07 Rope3_Seg06
Rope3_Seg08 Rope3_Seg07
Rope3_Seg09 Rope3_Seg08
R_rear_hand01 Rope3_Seg09
R_rear_hand02 Rope3_Seg09
R_rear_hand03 Rope3_Seg09
Rope4_Seg01 null_rope04_connect
Rope4_Seg02 Rope4_Seg01
Rope4_Seg03 Rope4_Seg02
Rope4_Seg04 Rope4_Seg03
Rope4_Seg05 Rope4_Seg04
Rope4_Seg06 Rope4_Seg05
Rope4_Seg07 Rope4_Seg06
Rope4_Seg08 Rope4_Seg07
Rope4_Seg09 Rope4_Seg08
L_rear_hand01 Rope4_Seg09
L_rear_hand02 Rope4_Seg09
L_rear_hand03 Rope4_Seg09
[BasePosition]
#SegmentName Tx, Ty, Tz, Rx, Ry, Rz, BoneLength
MASTER 0.000000 0.000000 0.000000 -90.000000 0.000000 0.000000 10.000000 
root 0.000000 0.000000 0.000000 0.000000 0.000000 0.000000 10.000000 
chest 0.000000 0.000000 0.000000 0.000000 0.000000 0.000000 10.000000 
L_mid_tent01 0.000000 0.000000 0.000000 0.000000 0.000000 0.000000 10.000000 
R_mid_tent01 0.000000 0.000000 0.000000 0.000000 0.000000 0.000000 10.000000 
spine01 0.000000 0.000000 0.000000 0.000000 0.000000 0.000000 10.000000 
Bip01_Neck 0.000000 0.000000 0.000000 0.000000 0.000000 0.000000 10.000000 
L_humerus 0.000000 0.000000 0.000000 0.000000 0.000000 0.000000 10.000000 
R_humerus 0.000000 0.000000 0.000000 0.000000 0.000000 0.000000 10.000000 
weapon_bone 0.000000 0.000000 0.000000 0.000000 0.000000 0.000000 10.000000 
Bip01_Head 0.000000 0.000000 0.000000 0.000000 0.000000 0.000000 10.000000 
eye_left_bone 0.000000 0.000000 0.000000 0.000000 0.000000 0.000000 10.000000 
eye_right_bone 0.000000 0.000000 0.000000 0.000000 0.000000 0.000000 10.000000 
L_forearm 0.000000 0.000000 0.000000 0.000000 0.000000 0.000000 10.000000 
L_front_hand 0.000000 0.000000 0.000000 0.000000 0.000000 0.000000 10.000000 
L_weapon_bone 0.000000 0.000000 0.000000 0.000000 0.000000 0.000000 10.000000 
L_front_hand01_01 0.000000 0.000000 0.000000 0.000000 0.000000 0.000000 10.000000 
L_front_hand02_01 0.000000 0.000000 0.000000 0.000000 0.000000 0.000000 10.000000 
L_front_hand03_01 0.000000 0.000000 0.000000 0.000000 0.000000 0.000000 10.000000 
L_front_hand01_02 0.000000 0.000000 0.000000 0.000000 0.000000 0.000000 10.000000 
L_front_hand02_02 0.000000 0.000000 0.000000 0.000000 0.000000 0.000000 10.000000 
L_front_hand03_02 0.000000 0.000000 0.000000 0.000000 0.000000 0.000000 10.000000 
R_forearm 0.000000 0.000000 0.000000 0.000000 0.000000 0.000000 10.000000 
R_front_hand 0.000000 0.000000 0.000000 0.000000 0.000000 0.000000 10.000000 
R_weapon_bone 0.000000 0.000000 0.000000 0.000000 0.000000 0.000000 10.000000 
R_front_hand01_01 0.000000 0.000000 0.000000 0.000000 0.000000 0.000000 10.000000 
R_front_hand02_01 0.000000 0.000000 0.000000 0.000000 0.000000 0.000000 10.000000 
R_front_hand03_01 0.000000 0.000000 0.000000 0.000000 0.000000 0.000000 10.000000 
R_front_hand01_02 0.000000 0.000000 0.000000 0.000000 0.000000 0.000000 10.000000 
R_front_hand02_02 0.000000 0.000000 0.000000 0.000000 0.000000 0.000000 10.000000 
R_front_hand03_02 0.000000 0.000000 0.000000 0.000000 0.000000 0.000000 10.000000 
null_rope01_connect 0.000000 0.000000 0.000000 0.000000 0.000000 0.000000 10.000000 
Rope1_Seg01 0.000000 0.000000 0.000000 0.000000 0.000000 0.000000 10.000000 
Rope1_Seg02 0.000000 0.000000 0.000000 0.000000 0.000000 0.000000 10.000000 
Rope1_Seg03 0.000000 0.000000 0.000000 0.000000 0.000000 0.000000 10.000000 
Rope1_Seg04 0.000000 0.000000 0.000000 0.000000 0.000000 0.000000 10.000000 
Rope1_Seg05 0.000000 0.000000 0.000000 0.000000 0.000000 0.000000 10.000000 
Rope1_Seg06 0.000000 0.000000 0.000000 0.000000 0.000000 0.000000 10.000000 
Rope1_Seg07 0.000000 0.000000 0.000000 0.000000 0.000000 0.000000 10.000000 
Rope1_Seg09 0.000000 0.000000 0.000000 0.000000 0.000000 0.000000 10.000000 
L_mid_hand01 0.000000 0.000000 0.000000 0.000000 0.000000 0.000000 10.000000 
L_mid_hand02 0.000000 0.000000 0.000000 0.000000 0.000000 0.000000 10.000000 
L_mid_hand03 0.000000 0.000000 0.000000 0.000000 0.000000 0.000000 10.000000 
null_rope02_connect 0.000000 0.000000 0.000000 0.000000 0.000000 0.000000 10.000000 
Rope2_Seg01 0.000000 0.000000 0.000000 0.000000 0.000000 0.000000 10.000000 
Rope2_Seg02 0.000000 0.000000 0.000000 0.000000 0.000000 0.000000 10.000000 
Rope2_Seg03 0.000000 0.000000 0.000000 0.000000 0.000000 0.000000 10.000000 
Rope2_Seg04 0.000000 0.000000 0.000000 0.000000 0.000000 0.000000 10.000000 
Rope2_Seg05 0.000000 0.000000 0.000000 0.000000 0.000000 0.000000 10.000000 
Rope2_Seg06 0.000000 0.000000 0.000000 0.000000 0.000000 0.000000 10.000000 
Rope2_Seg07 0.000000 0.000000 0.000000 0.000000 0.000000 0.000000 10.000000 
Rope2_Seg09 0.000000 0.000000 0.000000 0.000000 0.000000 0.000000 10.000000 
R_mid_hand01 0.000000 0.000000 0.000000 0.000000 0.000000 0.000000 10.000000 
R_mid_hand02 0.000000 0.000000 0.000000 0.000000 0.000000 0.000000 10.000000 
R_mid_hand03 0.000000 0.000000 0.000000 0.000000 0.000000 0.000000 10.000000 
spine02 0.000000 0.000000 0.000000 0.000000 0.000000 0.000000 10.000000 
spine03 0.000000 0.000000 0.000000 0.000000 0.000000 0.000000 10.000000 
pelvis 0.000000 0.000000 0.000000 0.000000 0.000000 0.000000 10.000000 
null_rope03_connect 0.000000 0.000000 0.000000 0.000000 0.000000 0.000000 10.000000 
null_rope04_connect 0.000000 0.000000 0.000000 0.000000 0.000000 0.000000 10.000000 
Rope3_Seg01 0.000000 0.000000 0.000000 0.000000 0.000000 0.000000 10.000000 
Rope3_Seg02 0.000000 0.000000 0.000000 0.000000 0.000000 0.000000 10.000000 
Rope3_Seg03 0.000000 0.000000 0.000000 0.000000 0.000000 0.000000 10.000000 
Rope3_Seg04 0.000000 0.000000 0.000000 0.000000 0.000000 0.000000 10.000000 
Rope3_Seg05 0.000000 0.000000 0.000000 0.000000 0.000000 0.000000 10.000000 
Rope3_Seg06 0.000000 0.000000 0.000000 0.000000 0.000000 0.000000 10.000000 
Rope3_Seg07 0.000000 0.000000 0.000000 0.000000 0.000000 0.000000 10.000000 
Rope3_Seg08 0.000000 0.000000 0.000000 0.000000 0.000000 0.000000 10.000000 
Rope3_Seg09 0.000000 0.000000 0.000000 0.000000 0.000000 0.000000 10.000000 
R_rear_hand01 0.000000 0.000000 0.000000 0.000000 0.000000 0.000000 10.000000 
R_rear_hand02 0.000000 0.000000 0.000000 0.000000 0.000000 0.000000 10.000000 
R_rear_hand03 0.000000 0.000000 0.000000 0.000000 0.000000 0.000000 10.000000 
Rope4_Seg01 0.000000 0.000000 0.000000 0.000000 0.000000 0.000000 10.000000 
Rope4_Seg02 0.000000 0.000000 0.000000 0.000000 0.000000 0.000000 10.000000 
Rope4_Seg03 0.000000 0.000000 0.000000 0.000000 0.000000 0.000000 10.000000 
Rope4_Seg04 0.000000 0.000000 0.000000 0.000000 0.000000 0.000000 10.000000 
Rope4_Seg05 0.000000 0.000000 0.000000 0.000000 0.000000 0.000000 10.000000 
Rope4_Seg06 0.000000 0.000000 0.000000 0.000000 0.000000 0.000000 10.000000 
Rope4_Seg07 0.000000 0.000000 0.000000 0.000000 0.000000 0.000000 10.000000 
Rope4_Seg08 0.000000 0.000000 0.000000 0.000000 0.000000 0.000000 10.000000 
Rope4_Seg09 0.000000 0.000000 0.000000 0.000000 0.000000 0.000000 10.000000 
L_rear_hand01 0.000000 0.000000 0.000000 0.000000 0.000000 0.000000 10.000000 
L_rear_hand02 0.000000 0.000000 0.000000 0.000000 0.000000 0.000000 10.000000 
L_rear_hand03 0.000000 0.000000 0.000000 0.000000 0.000000 0.000000 10.000000 
#Beginning of Data. Separated by tabs
#Fr	Tx	Ty	Tz	Rx	Ry	Rz	SF
[MASTER]
14 0.000000 0.000000 0.000000 0.001660 0.001660 0.001660 0.000000
15 0.000000 0.000000 0.000000 0.001660 0.001660 0.001660 0.000000
[root]
14 -73.554298 -62.674530 1409.234009 -91.880920 -21.380114 -90.367363 1412.543457
15 -68.142578 -62.675877 1425.717163 -91.867615 -21.992935 -90.351425 1428.719971
[chest]
14 -84.512650 -34.090519 0.000000 -4.733096 -0.572092 -176.428329 91.129311
15 -84.512650 -34.090519 0.000000 -4.849187 -0.530960 -177.122589 91.129311
[L_mid_tent01]
14 27.356497 22.144840 -250.284073 9.127347 31.608170 85.842491 252.746689
15 27.324255 22.163315 -250.076889 5.240266 33.645859 80.803589 252.539658
[R_mid_tent01]
14 23.228794 24.509907 226.238495 164.998505 -45.773365 83.629066 228.744751
15 23.228794 24.509907 226.238495 168.388733 -44.060249 79.517761 228.744751
[spine01]
14 -0.361383 -0.195265 0.000000 0.203911 0.415190 12.729266 0.410763
15 -0.361383 -0.195265 0.000000 0.268504 0.419035 13.018110 0.410763
[Bip01_Neck]
14 165.484543 71.581718 0.000119 175.896118 1.177290 24.871183 180.302734
15 165.484543 71.581718 0.000119 175.896118 1.177290 24.871183 180.302734
[L_humerus]
14 -13.983130 -135.272980 -120.471481 -178.281891 1.886852 -87.432518 181.680161
15 -13.983130 -135.272980 -120.471481 -178.281891 1.886852 -87.432518 181.680161
[R_humerus]
14 -13.983309 -135.273102 125.287651 -177.927048 -1.023230 -88.291847 184.909012
15 -13.983309 -135.273102 125.287651 -177.927048 -1.023230 -88.291855 184.909012
[weapon_bone]
14 235.964890 -300.705902 0.000000 0.000000 -89.951546 -128.212341 382.234833
15 235.964890 -300.705902 0.000000 0.000000 -89.951546 -128.212341 382.234833
[Bip01_Head]
14 252.623535 135.867371 5.556999 2.534317 3.426069 -46.611557 286.896271
15 254.189346 131.685699 4.502693 2.498406 3.729867 -48.595707 286.310364
[eye_left_bone]
14 -24.626970 125.451866 -64.772606 0.000000 -90.000000 -99.840431 143.318359
15 -24.626970 125.451866 -64.772606 0.000000 -90.000000 -99.840431 143.318359
[eye_right_bone]
14 -24.626970 125.451866 64.327362 0.000000 -89.960434 80.159386 143.117676
15 -24.626970 125.451866 64.327362 0.000000 -89.960434 80.159386 143.117676
[L_forearm]
14 322.776093 0.000000 -0.000119 0.000219 0.002337 -79.274117 322.776093
15 322.776093 0.000000 -0.000119 0.000361 0.002319 -72.322342 322.776093
[L_front_hand]
14 241.149185 -0.042021 -3.300071 -177.745880 0.251191 -87.772339 241.171753
15 241.149185 -0.042021 -3.300071 -177.746277 0.254703 -87.950859 241.171753
[L_weapon_bone]
14 156.183838 0.000000 0.000000 0.001726 0.001590 4.701396 156.183838
15 156.183838 0.000000 0.000000 0.001770 0.001542 7.896291 156.183838
[L_front_hand01_01]
14 86.095154 20.947098 -0.655860 0.388276 -0.454279 -2.682382 88.609184
15 86.095154 20.947098 -0.655860 0.389052 -0.453612 -2.878613 88.609184
[L_front_hand02_01]
14 86.935165 -11.437475 24.513514 116.917679 1.896876 0.616449 91.046425
15 86.935165 -11.437475 24.513514 116.921036 2.069321 0.703654 91.046425
[L_front_hand03_01]
14 86.637497 -14.123976 -20.424902 -118.360077 -2.961344 -1.073806 90.126129
15 86.637497 -14.123976 -20.424902 -118.364449 -3.123214 -0.985924 90.126129
[L_front_hand01_02]
14 71.020905 -0.000179 0.000030 0.001534 0.001777 -8.378850 71.020905
15 71.020905 -0.000179 0.000030 0.001534 0.001777 -8.378848 71.020905
[L_front_hand02_02]
14 71.020927 -0.000119 0.000060 0.001534 0.001777 -8.378850 71.020927
15 71.020927 -0.000119 0.000060 0.001534 0.001777 -8.378848 71.020927
[L_front_hand03_02]
14 71.020905 -0.000060 0.000060 0.001534 0.001777 -8.378850 71.020905
15 71.020905 -0.000060 0.000060 0.001534 0.001777 -8.378848 71.020905
[R_forearm]
14 322.776428 -0.000060 0.000030 0.202853 -0.062783 -73.281151 322.776428
15 322.776428 -0.000060 0.000030 0.199446 -0.076272 -69.529373 322.776428
[R_front_hand]
14 238.847015 -0.006795 2.210259 -1.696380 -0.335892 -89.931129 238.857239
15 238.847015 -0.006795 2.210259 -1.699416 -0.305415 -88.818329 238.857239
[R_weapon_bone]
14 155.664093 0.002503 -0.000030 0.003417 0.001367 -97.212746 155.664078
15 155.664093 0.002503 -0.000030 0.003365 0.001491 -101.385773 155.664078
[R_front_hand01_01]
14 87.624611 14.231146 22.918642 -116.926476 2.150259 -0.637112 91.683487
15 87.624611 14.231146 22.918642 -116.929695 2.283273 -0.705005 91.683487
[R_front_hand02_01]
14 89.356956 14.367283 -19.491137 118.374596 -2.926586 1.330066 92.579636
15 89.356956 14.367283 -19.491137 118.377754 -3.060050 1.258390 92.579636
[R_front_hand03_01]
14 87.286232 -22.307278 -0.143439 -0.385007 -0.241495 2.722885 90.091743
15 87.286232 -22.307278 -0.143439 -0.385324 -0.240988 2.873771 90.091743
[R_front_hand01_02]
14 71.020905 0.000060 0.000119 0.001777 0.001534 8.377220 71.020905
15 71.020905 0.000060 0.000119 0.001777 0.001534 8.377220 71.020905
[R_front_hand02_02]
14 71.020844 -0.000030 -0.000119 0.001777 0.001534 8.377220 71.020836
15 71.020844 -0.000030 -0.000119 0.001777 0.001534 8.377220 71.020836
[R_front_hand03_02]
14 71.020905 0.000000 0.000030 0.001777 0.001534 8.377220 71.020905
15 71.020905 0.000000 0.000030 0.001777 0.001534 8.377220 71.020905
[null_rope01_connect]
14 328.732483 0.000000 -0.000238 -138.023163 -55.228718 166.262482 328.732483
15 328.732483 0.000000 -0.000238 -139.877197 -53.999218 172.748444 328.732483
[Rope1_Seg01]
14 0.000097 0.000000 0.000000 96.638634 25.049860 110.167343 0.000097
15 0.000093 0.000000 0.000000 92.784210 39.578976 108.999107 0.000093
[Rope1_Seg02]
14 139.999863 -0.000179 0.000000 -5.945682 -15.477521 -3.438571 139.999863
15 139.999863 -0.000179 0.000000 -2.069109 -17.115843 25.168186 139.999863
[Rope1_Seg03]
14 139.999924 0.000060 -0.000060 -1.642496 -12.876329 14.931453 139.999924
15 139.999924 0.000060 -0.000060 1.113468 -9.596096 13.364864 139.999924
[Rope1_Seg04]
14 139.999924 -0.000060 -0.000119 2.013138 -10.228930 14.301704 139.999924
15 139.999924 -0.000060 -0.000119 0.311090 -4.515159 5.470676 139.999924
[Rope1_Seg05]
14 139.999832 0.000119 -0.000060 1.623786 -3.176599 4.534818 139.999832
15 139.999832 0.000119 -0.000060 0.455268 -1.654215 2.161680 139.999832
[Rope1_Seg06]
14 139.999954 0.000119 -0.000060 1.555034 -1.842115 2.786704 139.999954
15 139.999954 0.000119 -0.000060 0.366172 -0.986847 1.324044 139.999954
[Rope1_Seg07]
14 139.999985 0.000060 0.000000 1.437330 -1.154388 1.852025 139.999985
15 139.999985 0.000060 0.000000 0.283673 -0.638516 0.870547 139.999985
[Rope1_Seg09]
14 121.602913 0.000119 -0.000089 -124.653114 -1.361467 0.846074 121.602913
15 121.602913 0.000119 -0.000089 179.280762 -1.361453 0.846110 121.602913
[L_mid_hand01]
14 103.859421 1.038730 8.195221 104.352036 0.341479 -0.444583 104.187431
15 103.859421 1.038730 8.195221 104.352043 0.341479 -0.444583 104.187431
[L_mid_hand02]
14 105.572853 -4.139662 -10.864139 -135.608444 3.905687 -3.381056 106.211075
15 105.572853 -4.139662 -10.864139 -135.608444 3.905687 -3.381056 106.211075
[L_mid_hand03]
14 104.641464 17.579376 -3.913581 -18.761518 -0.324361 2.942912 106.179977
15 104.641464 17.579376 -3.913581 -18.761518 -0.324361 2.942913 106.179977
[null_rope02_connect]
14 328.732849 0.000179 -0.000119 -131.171982 44.307945 14.984149 328.732849
15 328.732849 0.000179 -0.000119 -130.431412 46.668354 12.645391 328.732849
[Rope2_Seg01]
14 0.000095 0.000153 0.000028 -52.046478 30.535250 41.678635 0.000182
15 0.000095 0.000153 0.000030 -49.514957 33.548790 48.181503 0.000182
[Rope2_Seg02]
14 139.999741 -0.000060 -0.000119 0.394248 -14.823849 1.506483 139.999756
15 139.999741 -0.000060 -0.000119 0.964533 -12.520052 -3.059938 139.999756
[Rope2_Seg03]
14 140.000107 0.000030 0.000000 -0.783729 -15.132189 0.729408 140.000107
15 140.000107 0.000030 0.000000 0.090044 -5.564176 -6.914278 140.000107
[Rope2_Seg04]
14 139.999802 0.000000 -0.000060 -2.118953 -15.636950 2.424788 139.999802
15 139.999802 0.000000 -0.000060 -2.106387 -21.907475 8.320787 139.999802
[Rope2_Seg05]
14 139.999985 -0.000060 0.000119 -0.725748 -8.872432 3.362227 139.999985
15 139.999985 -0.000060 0.000119 -0.206657 -11.431562 5.904924 139.999985
[Rope2_Seg06]
14 139.999893 -0.000030 -0.000119 -0.564692 -4.147583 1.289080 139.999893
15 139.999893 -0.000030 -0.000119 -0.224292 -4.140815 1.732059 139.999893
[Rope2_Seg07]
14 139.999893 0.000060 -0.000060 -0.478055 -2.513166 0.670090 139.999893
15 139.999893 0.000060 -0.000060 -0.153789 -2.460213 1.019076 139.999893
[Rope2_Seg09]
14 121.338966 0.000089 -0.000060 164.088486 1.527697 -0.491508 121.338966
15 121.338966 0.000089 -0.000060 -146.206543 1.358425 0.848603 121.338966
[R_mid_hand01]
14 104.680779 11.144459 -10.335981 -47.245872 5.061143 7.392864 105.778534
15 104.680779 11.144459 -10.335981 -44.515984 18.516367 20.627542 105.778534
[R_mid_hand02]
14 104.070427 2.443552 8.231699 75.580772 -5.017128 1.822981 104.424065
15 104.070427 2.443552 8.231699 74.360802 -23.045813 6.790010 104.424065
[R_mid_hand03]
14 106.028137 -11.221827 -5.996406 -164.519165 3.261959 -8.892426 106.788818
15 106.028137 -11.221827 -5.996406 -166.314026 7.999306 -27.026403 106.788818
[spine02]
14 129.756927 0.001550 0.000119 -0.147989 -4.219689 -5.785748 129.756927
15 129.756927 0.001550 0.000119 -0.157916 -4.201137 -5.641659 129.756927
[spine03]
14 78.863716 0.043825 -2.458966 1.717106 0.680581 11.034432 78.902054
15 78.839500 0.048027 -2.695366 1.617718 1.070278 9.356008 78.885582
[pelvis]
14 169.435242 0.051022 0.000000 0.012903 1.532953 -3.068697 169.435257
15 169.435242 0.051022 0.000000 0.012100 1.351939 -2.948528 169.435257
[null_rope03_connect]
14 -1.257226 -2.466202 137.391083 145.394760 -89.096046 -48.981293 137.418976
15 -1.257226 -2.466202 137.391083 153.398270 -89.217651 -55.237324 137.418976
[null_rope04_connect]
14 -1.259640 -2.480268 -137.844437 145.394760 -89.096046 -48.981293 137.872513
15 -1.259640 -2.480268 -137.844437 153.398270 -89.217651 -55.237324 137.872513
[Rope3_Seg01]
14 0.000010 0.000024 -0.000097 -101.295036 15.558150 -17.870981 0.000101
15 0.000010 0.000023 -0.000093 -123.152069 5.319415 -39.848644 0.000097
[Rope3_Seg02]
14 139.999924 -0.000119 0.000060 8.912816 -5.865430 9.575673 139.999924
15 139.999924 -0.000119 0.000060 12.066204 -17.041681 2.502448 139.999924
[Rope3_Seg03]
14 139.999924 -0.000119 0.000119 3.848328 -2.110273 5.778450 139.999924
15 139.999924 -0.000119 0.000119 14.901699 -17.153803 6.743020 139.999924
[Rope3_Seg04]
14 139.999924 0.000119 0.000000 2.656513 -1.487936 4.871570 139.999924
15 139.999924 0.000119 0.000000 8.872230 -8.792473 6.980636 139.999924
[Rope3_Seg05]
14 139.999924 -0.000238 0.000060 6.247701 -5.404815 16.326221 139.999924
15 139.999924 -0.000238 0.000060 10.881539 -11.683870 11.751044 139.999924
[Rope3_Seg06]
14 139.999893 -0.000119 -0.000060 3.438504 -4.163986 20.178553 139.999893
15 139.999893 -0.000119 -0.000060 9.826414 -13.293176 20.210695 139.999893
[Rope3_Seg07]
14 139.999771 0.000060 -0.000119 0.738963 -1.478692 11.392144 139.999771
15 139.999771 0.000060 -0.000119 3.909783 -5.613190 14.066098 139.999771
[Rope3_Seg08]
14 139.999985 -0.000060 0.000000 0.185303 -0.762119 6.646369 139.999985
15 139.999985 -0.000060 0.000000 1.553197 -2.087001 6.764568 139.999985
[Rope3_Seg09]
14 90.185997 -0.000179 -0.000060 68.500587 -1.360341 -0.846465 90.185997
15 90.185997 -0.000179 -0.000060 68.626305 -1.359412 -0.847957 90.185997
[R_rear_hand01]
14 103.366196 -6.073594 -10.757982 -156.049316 6.070419 -2.795869 104.101845
15 103.366196 -6.073594 -10.757982 -156.049316 6.070419 -2.795869 104.101845
[R_rear_hand02]
14 100.509819 12.039542 -7.992327 -38.708435 1.958051 5.461186 101.543350
15 100.509819 12.039542 -7.992327 -38.708435 1.958051 5.461186 101.543350
[R_rear_hand03]
14 101.539970 5.215704 5.435467 84.307625 -2.361032 4.099037 101.819031
15 101.539970 5.215704 5.435467 84.307625 -2.361032 4.099037 101.819031
[Rope4_Seg01]
14 -0.000010 0.000007 -0.000104 26.144651 28.761930 -142.734482 0.000105
15 -0.000011 0.000002 -0.000106 35.128098 20.750412 -132.881165 0.000107
[Rope4_Seg02]
14 139.999985 0.000060 0.000119 -5.591905 0.540147 -11.969902 139.999985
15 139.999985 0.000060 0.000119 -8.203632 -3.062217 -20.314339 139.999985
[Rope4_Seg03]
14 139.999924 0.000000 -0.000238 -5.155618 -2.324696 -10.560213 139.999924
15 139.999924 0.000000 -0.000238 -10.570189 -6.312171 -18.276838 139.999924
[Rope4_Seg04]
14 139.999985 0.000000 0.000119 -5.564582 -2.350487 -9.130675 139.999985
15 139.999985 0.000000 0.000119 -18.212996 2.999640 -17.041384 139.999985
[Rope4_Seg05]
14 139.999802 -0.000060 -0.000119 -26.353851 30.153099 -26.676634 139.999802
15 139.999802 -0.000060 -0.000119 -24.659250 33.545345 -20.224596 139.999802
[Rope4_Seg06]
14 139.999924 0.000000 0.000060 -4.078811 25.984884 -7.774614 139.999924
15 139.999924 0.000000 0.000060 -2.325954 19.120653 -2.411799 139.999924
[Rope4_Seg07]
14 139.999802 0.000000 0.000000 0.549881 7.904655 -2.399627 139.999802
15 139.999802 0.000000 0.000000 0.065325 6.410552 -1.074539 139.999802
[Rope4_Seg08]
14 139.999924 0.000000 0.000119 -0.984654 3.859804 -1.219219 139.999924
15 139.999924 0.000000 0.000119 -1.330732 3.314423 -0.561340 139.999924
[Rope4_Seg09]
14 90.185791 0.000060 0.000060 -114.665764 2.227304 0.848487 90.185791
15 90.185791 0.000060 0.000060 -114.018143 2.227860 0.852766 90.185791
[L_rear_hand01]
14 101.696655 -8.392275 -7.654577 -38.746338 0.246096 177.290207 102.329041
15 101.696655 -8.392275 -7.654577 -38.746338 0.246096 177.290207 102.329041
[L_rear_hand02]
14 102.726799 -1.568258 5.773216 84.315163 -1.142796 176.247437 102.900848
15 102.726799 -1.568258 5.773216 84.315163 -1.142796 176.247437 102.900848
[L_rear_hand03]
14 104.552910 9.721220 -10.420293 -155.747955 -4.630845 179.564758 105.519653
15 104.552910 9.721220 -10.420293 -155.747955 -4.630845 179.564758 105.519653
